<?xml version="1.0" standalone="no"?>
<!DOCTYPE svg PUBLIC "-//W3C//DTD SVG 20010904//EN"
 "http://www.w3.org/TR/2001/REC-SVG-20010904/DTD/svg10.dtd">
<svg version="1.0" xmlns="http://www.w3.org/2000/svg"
 width="900.000000pt" height="900.000000pt" viewBox="0 0 900.000000 900.000000"
 preserveAspectRatio="xMidYMid meet">

  <defs>
    <linearGradient id="customGradient" gradientUnits="userSpaceOnUse"
      x1="0" y1="0" x2="40" y2="3240">
      <stop offset="0%" style="stop-color:#d16ba5" /> 
      <stop offset="100%" style="stop-color:#face9b" />
    </linearGradient>
  </defs>

<g transform="translate(0.000000,900.000000) scale(0.100000,-0.100000)" fill="url(#customGradient)" stroke="none">
<path d="M4554 8060 c-155 -23 -260 -131 -283 -292 -5 -35 -10 -621 -10 -1327
-1 -983 -4 -1269 -14 -1289 -28 -59 -130 -96 -200 -73 -18 6 -47 25 -63 42
l-29 30 -6 322 c-4 177 -7 597 -8 934 -1 581 -2 616 -21 677 -38 121 -142 206
-276 225 -166 24 -315 -53 -382 -197 l-27 -57 -5 -985 c-6 -1119 2 -1025 -93
-1080 -28 -17 -103 -51 -164 -77 -111 -47 -125 -59 -105 -91 5 -7 46 -19 93
-27 345 -61 766 -175 1034 -282 563 -225 1086 -651 1427 -1163 105 -158 223
-393 270 -538 18 -56 36 -102 40 -102 15 0 130 155 191 258 89 152 151 292
191 434 57 201 69 283 70 473 0 246 -24 360 -118 560 l-51 110 -5 1250 c-6
1385 0 1278 -71 1381 -67 97 -219 157 -344 135 -128 -23 -223 -97 -265 -207
-22 -58 -22 -65 -22 -554 0 -272 -2 -696 -6 -942 l-7 -447 -35 -36 c-54 -56
-132 -70 -207 -36 -85 39 -77 -82 -83 1396 l-5 1310 -23 56 c-45 113 -140 189
-262 208 -36 6 -67 10 -70 10 -3 -1 -28 -5 -56 -9z"/>
<path d="M6659 6017 c-108 -31 -180 -97 -216 -200 -17 -48 -18 -100 -18 -682
0 -569 2 -645 20 -785 24 -189 28 -594 7 -730 -55 -347 -182 -663 -370 -917
-339 -457 -787 -704 -1366 -754 -538 -46 -1077 140 -1483 512 -167 153 -252
268 -493 669 -139 233 -248 397 -346 526 -172 225 -392 464 -406 442 -11 -18
-10 -216 2 -378 17 -230 72 -487 146 -687 87 -239 262 -543 431 -753 203 -252
524 -515 797 -652 250 -126 541 -219 814 -262 700 -111 1416 76 1957 510 279
223 543 567 721 939 108 224 185 482 221 730 17 120 18 213 18 1185 l0 1055
-26 56 c-54 114 -157 180 -289 186 -41 1 -96 -3 -121 -10z"/>
<path d="M2204 4821 c-92 -25 -157 -58 -217 -111 -59 -52 -87 -105 -87 -165 0
-67 21 -107 102 -193 137 -144 483 -534 622 -701 141 -169 338 -428 480 -632
247 -353 429 -526 707 -673 366 -192 804 -233 1207 -112 158 48 312 128 337
176 30 59 11 179 -61 378 -166 459 -531 908 -1005 1235 -314 216 -605 360
-985 486 -182 60 -254 79 -254 66 0 -4 31 -44 69 -89 226 -268 477 -658 568
-884 39 -96 40 -144 5 -191 -23 -31 -81 -49 -119 -35 -35 12 -61 49 -197 279
-204 344 -414 661 -583 876 -162 208 -290 297 -439 305 -58 3 -98 -1 -150 -15z"/>
</g>
</svg>
